<svg width="400" height="391" viewBox="0 0 400 391" fill="none" xmlns="http://www.w3.org/2000/svg">
<rect width="400" height="390.486" fill="white"/>
<path fill-rule="evenodd" clip-rule="evenodd" d="M227.876 27.2315C253.285 24.4305 275.158 35.9899 286.051 58.8642C313.771 117.061 324.531 91.6085 358.475 123.419C411.182 172.813 327.198 200.845 352.918 258.242C368.679 293.409 345.849 362.454 293.187 343.626C233.144 322.152 225.031 354.807 174.836 353.918C116.506 352.896 112.704 312.638 98.9442 287.741C84.3393 261.332 35.0117 260.02 29.9211 216.828C25.8976 182.594 67.0669 178.037 52.3731 104.502C44.2148 63.5991 86.4733 23.319 126.109 34.4783C187.663 51.8397 187.729 31.6774 227.876 27.2315Z" fill="#E3EFFF"/>
<path d="M26.0087 105.924C26.0309 109.703 27.6092 113.082 30.0545 115.572C32.5442 118.106 35.9898 119.662 39.7688 119.662C42.0362 119.662 43.8591 121.507 43.8591 123.775C43.8591 126.042 42.0362 127.931 39.7688 127.931C35.9898 127.931 32.5442 129.488 30.0545 132.022C27.5425 134.534 26.0087 138.001 26.0087 141.847C26.0087 144.115 24.1858 145.96 21.9407 145.96C19.6955 145.96 17.8282 144.115 17.8282 141.847C17.8282 138.024 16.2943 134.534 13.7824 132.022C11.2927 129.488 7.84706 127.931 4.06803 127.931C1.82283 127.931 0 126.064 0 123.775C0 121.485 1.82283 119.662 4.06803 119.662C7.84706 119.662 11.2927 118.106 13.7824 115.572C16.2499 113.082 17.8059 109.703 17.8282 105.924C17.8282 105.857 17.8282 105.813 17.8282 105.746C17.8282 103.479 19.6732 101.634 21.9407 101.634C24.2081 101.634 26.0087 103.479 26.0087 105.746C26.0087 105.791 26.0087 105.857 26.0087 105.924Z" fill="#FF9E00"/>
<path d="M334.111 57.1302C334.134 59.731 335.201 62.1318 336.912 63.8435C338.668 65.5997 341.069 66.7111 343.715 66.7111C345.271 66.7111 346.56 68.0005 346.56 69.5788C346.56 71.1571 345.293 72.4464 343.715 72.4464C341.091 72.4464 338.691 73.5579 336.912 75.314C335.178 77.0702 334.111 79.5154 334.111 82.183C334.111 83.7613 332.844 85.0506 331.244 85.0506C329.688 85.0506 328.398 83.7613 328.398 82.183C328.398 79.5154 327.309 77.0702 325.553 75.314C323.819 73.5579 321.418 72.4464 318.751 72.4464C317.195 72.4464 315.905 71.1571 315.905 69.5788C315.905 68.0005 317.172 66.7111 318.751 66.7111C321.418 66.7111 323.819 65.5997 325.553 63.8435C327.265 62.1096 328.354 59.731 328.398 57.1302C328.398 57.0635 328.398 57.0413 328.398 56.9746C328.398 55.3963 329.665 54.1069 331.244 54.1069C332.844 54.1069 334.111 55.3963 334.111 56.9746C334.111 57.0413 334.111 57.0635 334.111 57.1302Z" fill="#FF9E00"/>
<path d="M73.5801 293.454C73.6023 296.077 74.6693 298.455 76.381 300.211C78.1372 301.968 80.538 303.035 83.1833 303.035C84.7394 303.035 86.0287 304.324 86.0287 305.924C86.0287 307.503 84.7616 308.792 83.1833 308.792C80.5602 308.792 78.1594 309.904 76.381 311.66C74.6471 313.416 73.5801 315.839 73.5801 318.506C73.5801 320.107 72.313 321.396 70.7125 321.396C69.1564 321.396 67.8671 320.107 67.8671 318.506C67.8671 315.861 66.7778 313.416 65.0217 311.66C63.2878 309.904 60.887 308.792 58.2639 308.792C56.6633 308.792 55.3962 307.503 55.3962 305.924C55.3962 304.324 56.6633 303.035 58.2639 303.035C60.887 303.035 63.2878 301.945 65.0217 300.211C66.7334 298.455 67.8226 296.099 67.8671 293.454C67.8671 293.431 67.8671 293.365 67.8671 293.342C67.8671 291.764 69.1342 290.453 70.7125 290.453C72.313 290.453 73.5801 291.764 73.5801 293.342C73.5801 293.365 73.5801 293.409 73.5801 293.454Z" fill="#FFC909"/>
<path d="M260.82 356.986C260.887 360.143 262.154 362.966 264.199 365.055C266.311 367.189 269.179 368.501 272.357 368.501C274.247 368.501 275.781 370.013 275.781 371.947C275.781 373.836 274.247 375.392 272.357 375.392C269.179 375.392 266.311 376.704 264.199 378.815C262.11 380.927 260.82 383.839 260.82 387.018C260.82 388.952 259.286 390.486 257.397 390.486C255.507 390.486 253.973 388.93 253.973 387.018C253.973 383.839 252.662 380.905 250.595 378.815C248.483 376.704 245.615 375.392 242.436 375.392C240.547 375.392 239.013 373.836 239.013 371.947C239.013 370.013 240.547 368.501 242.436 368.501C245.615 368.501 248.483 367.189 250.595 365.055C252.64 362.988 253.929 360.143 253.973 356.986C253.973 356.919 253.973 356.897 253.973 356.83C253.973 354.941 255.507 353.385 257.397 353.385C259.286 353.385 260.82 354.941 260.82 356.83C260.82 356.897 260.82 356.919 260.82 356.986Z" fill="#FF9E00"/>
<path d="M384.061 201.223C384.128 204.58 385.484 207.625 387.685 209.848C389.908 212.093 392.975 213.471 396.354 213.471C398.377 213.471 400 215.139 400 217.162C400 219.207 398.377 220.852 396.354 220.852C392.975 220.852 389.908 222.252 387.685 224.497C385.462 226.743 384.061 229.877 384.061 233.256C384.061 235.301 382.438 236.946 380.416 236.946C378.415 236.946 376.77 235.301 376.77 233.256C376.77 229.877 375.369 226.743 373.147 224.497C370.924 222.252 367.856 220.852 364.477 220.852C362.476 220.852 360.831 219.207 360.831 217.162C360.831 215.139 362.476 213.471 364.477 213.471C367.856 213.471 370.924 212.093 373.147 209.848C375.347 207.625 376.726 204.58 376.77 201.223C376.77 201.156 376.77 201.112 376.77 201.045C376.77 199.022 378.393 197.355 380.416 197.355C382.438 197.355 384.061 199.022 384.061 201.045C384.061 201.09 384.061 201.156 384.061 201.223Z" fill="#FFC909"/>
<path d="M154.54 2.6231C154.563 4.86829 155.496 6.93565 157.008 8.46949C158.519 9.98111 160.587 10.9148 162.876 10.9148C164.255 10.9148 165.366 12.0485 165.366 13.4267C165.366 14.8049 164.277 15.9164 162.876 15.9164C160.587 15.9164 158.519 16.8723 157.008 18.4061C155.474 19.9622 154.54 22.0518 154.54 24.3637C154.54 25.7419 153.451 26.8756 152.051 26.8756C150.695 26.8756 149.583 25.7419 149.583 24.3637C149.583 22.0518 148.627 19.9622 147.116 18.4061C145.604 16.8945 143.492 15.9164 141.225 15.9164C139.869 15.9164 138.757 14.8049 138.757 13.4267C138.757 12.0485 139.847 10.9148 141.225 10.9148C143.514 10.9148 145.626 9.98111 147.116 8.46949C148.583 6.95788 149.539 4.86829 149.583 2.6231C149.583 2.55641 149.583 2.53418 149.583 2.51195C149.583 1.11149 150.672 0 152.051 0C153.429 0 154.54 1.11149 154.54 2.51195C154.54 2.53418 154.54 2.55641 154.54 2.6231Z" fill="#FFC909"/>
<path d="M192.198 162.697C192.199 160.773 193.752 159.187 195.71 159.187C197.635 159.187 199.222 160.74 199.222 162.699C199.222 180.197 213.468 194.443 230.966 194.443C248.464 194.443 262.71 180.197 262.71 162.699C262.71 146.493 250.509 133.088 234.799 131.183L237.707 136.999C238.579 138.742 237.86 140.852 236.126 141.719L236.115 141.725L236.105 141.73C235.608 141.964 235.085 142.092 234.545 142.092C233.264 142.092 232.024 141.375 231.405 140.138L225.026 127.402L225.022 127.394L225.022 127.394C224.249 125.816 224.742 123.891 226.232 122.898L238.97 114.407L238.977 114.402L238.977 114.402C240.592 113.346 242.761 113.782 243.844 115.392L243.852 115.403L243.852 115.403C244.907 117.017 244.471 119.186 242.862 120.27L242.856 120.273L236.737 124.337C255.378 127.141 269.712 143.269 269.712 162.677C269.712 184.058 252.303 201.467 230.922 201.467C209.542 201.467 192.13 184.059 192.198 162.697ZM192.198 162.697C192.198 162.697 192.198 162.696 192.198 162.696L193.198 162.699H192.198C192.198 162.698 192.198 162.698 192.198 162.697Z" fill="#021631" stroke="#021631" stroke-width="2"/>
<path d="M153.126 238.679L177.92 216.771L179.895 218.669C177.568 216.469 175.249 214.298 174.742 213.845C174.235 213.391 172.755 211.956 171.479 210.684C170.203 209.411 168.313 207.527 167.303 206.525C164.473 203.776 154.445 193.23 153.227 191.721C151.964 190.161 151.063 187.334 151.014 184.736C150.952 182.645 151.976 177.411 152.883 175.075L153.553 173.342L110.062 118.871C109.825 119.033 109.351 119.357 108.985 119.619C107.625 120.479 104.71 123.388 103.317 125.234C99.5528 130.242 96.9399 136.527 96.2395 142.455C95.5142 148.296 95.8871 152.029 97.955 159.276C100.264 167.366 102.939 173.873 107.413 182.385C112.906 192.809 121.349 204.972 130.151 215.081C139.401 225.727 142.919 228.984 153.126 238.679ZM162.968 164.644C166.249 161.693 168.853 159.125 169.227 158.452C169.78 157.412 169.801 157.155 169.348 156.119C169.07 155.475 167.836 153.687 166.631 152.111C159.966 143.532 147.109 127.153 144.628 124.084C143.846 123.111 142.675 121.651 142.076 120.878C141.449 120.112 139.907 118.129 138.627 116.511C137.347 114.894 134.904 111.846 133.225 109.712C131.555 107.608 129.905 105.687 129.597 105.492C128.404 104.73 127.028 105.532 120.562 110.556C116.395 113.822 114.432 115.547 114.515 115.838L157.072 169.788C157.217 169.747 159.895 167.441 162.968 164.644Z" fill="#021631"/>
<path d="M153.126 238.679L177.92 216.771C180.282 218.934 182.614 221.09 183.103 221.563C183.591 222.036 185.129 223.408 186.49 224.589C187.852 225.77 189.867 227.52 190.939 228.455C193.885 231.08 205.127 240.322 206.72 241.427C208.366 242.575 211.251 243.27 213.846 243.131C215.936 243.042 221.082 241.643 223.347 240.57L225.028 239.777L282.491 279.229C282.347 279.477 282.058 279.973 281.823 280.357C281.063 281.775 278.372 284.892 276.632 286.415C271.908 290.53 265.827 293.589 259.965 294.715C254.192 295.86 250.442 295.757 243.065 294.217C234.829 292.497 228.146 290.298 219.334 286.449C208.541 281.722 195.801 274.177 185.084 266.127C173.799 257.669 163.531 248.16 153.126 238.679ZM233.024 229.759C235.731 226.274 238.105 223.493 238.749 223.071C239.746 222.444 240.001 222.404 241.066 222.781C241.729 223.013 243.602 224.115 245.26 225.203C254.297 231.233 271.561 242.875 274.801 245.129C275.828 245.838 277.368 246.901 278.183 247.442C278.991 248.013 281.08 249.408 282.786 250.568C284.492 251.728 287.708 253.945 289.957 255.466C292.176 256.98 294.211 258.487 294.428 258.78C295.273 259.915 294.573 261.345 290.028 268.157C287.07 272.548 285.492 274.63 285.196 274.568L228.318 236.012C228.349 235.864 230.456 233.026 233.024 229.759Z" fill="#021631"/>
</svg>
