<svg width="200" height="41" viewBox="0 0 200 41" fill="none" xmlns="http://www.w3.org/2000/svg">
<g clip-path="url(#clip0)">
<path d="M19.512 13.9721C19.512 15.4314 19.2706 16.7054 18.7879 17.7941C18.3053 18.8718 17.6318 19.7753 16.7675 20.505C15.9144 21.2234 14.8986 21.7621 13.72 22.1213C12.5413 22.4805 11.2617 22.6601 9.88105 22.6601H2.20325V22.1719C2.74204 22.1719 3.16859 22.1382 3.48288 22.0709C3.8084 22.0035 4.05535 21.88 4.22372 21.7004C4.39209 21.5096 4.50434 21.2514 4.56047 20.9259C4.61659 20.5891 4.64466 20.157 4.64466 19.6294V8.48315C4.64466 7.94436 4.6222 7.50659 4.57731 7.16984C4.5324 6.8331 4.42577 6.57492 4.25739 6.39532C4.08902 6.20451 3.84207 6.07541 3.51656 6.00806C3.19103 5.94072 2.75327 5.90705 2.20325 5.90705V5.45244H9.19072C10.6387 5.45244 11.9913 5.58714 13.2485 5.85654C14.5057 6.12593 15.5945 6.59176 16.5149 7.25402C17.4466 7.90507 18.1762 8.775 18.7038 9.86379C19.2425 10.9527 19.512 12.322 19.512 13.9721ZM16.6496 14.0731C16.6496 13.0067 16.4981 12.0133 16.195 11.093C15.9032 10.1612 15.4598 9.34746 14.8649 8.65152C14.2811 7.95558 13.5572 7.41118 12.6929 7.01831C11.8398 6.61421 10.8464 6.41216 9.71268 6.41216C9.26368 6.41216 8.8203 6.44584 8.38253 6.51319C7.95599 6.58054 7.52383 6.67595 7.08606 6.79942V21.4142C7.49015 21.5264 7.92793 21.6218 8.39937 21.7004C8.87081 21.7677 9.33103 21.8014 9.78003 21.8014C10.9025 21.8014 11.8903 21.5994 12.7434 21.1953C13.5965 20.7799 14.3092 20.2244 14.8817 19.5284C15.4654 18.8212 15.9032 18.0018 16.195 17.0702C16.4981 16.1272 16.6496 15.1282 16.6496 14.0731ZM39.1227 22.6601H25.8886V22.1719C26.4274 22.1719 26.854 22.1382 27.1682 22.0709C27.4938 22.0035 27.7407 21.88 27.909 21.7004C28.0774 21.5096 28.1897 21.2514 28.2458 20.9259C28.3019 20.5891 28.33 20.157 28.33 19.6294V8.4158C28.33 7.87701 28.3076 7.44485 28.2626 7.11932C28.2177 6.79381 28.1111 6.54125 27.9427 6.36165C27.7744 6.18205 27.5275 6.06419 27.2019 6.00806C26.8764 5.94072 26.4386 5.90705 25.8886 5.90705V5.45244H39.1227L39.3247 9.20715H38.8533C38.7074 8.65714 38.5671 8.20253 38.4324 7.84333C38.3089 7.47291 38.1349 7.18107 37.9104 6.9678C37.6971 6.75452 37.3997 6.60299 37.018 6.51319C36.6477 6.42338 36.1425 6.37849 35.5027 6.37849H30.7545V13.1807H34.5429C35.0705 13.1807 35.4915 13.147 35.8058 13.0797C36.1313 13.0011 36.3894 12.8721 36.5803 12.6925C36.7823 12.5016 36.9282 12.2491 37.018 11.9348C37.1191 11.6093 37.2032 11.1939 37.2706 10.6888H37.742V16.6997H37.2706C37.2032 16.1946 37.1191 15.7794 37.018 15.4537C36.9282 15.1282 36.7879 14.8701 36.5971 14.6793C36.4063 14.4772 36.1481 14.3369 35.8226 14.2584C35.5083 14.1797 35.0817 14.1404 34.5429 14.1404H30.7545V19.7978C30.7545 20.1121 30.7602 20.3928 30.7714 20.6396C30.7939 20.8754 30.85 21.0775 30.9398 21.2459C31.0296 21.403 31.1699 21.5264 31.3608 21.6162C31.5627 21.6948 31.8434 21.7341 32.2025 21.7341H35.0986C35.8506 21.7341 36.468 21.6724 36.9507 21.5489C37.4334 21.4254 37.8486 21.229 38.1966 20.9596C38.5558 20.6902 38.8757 20.3422 39.1563 19.9157C39.437 19.4779 39.7513 18.9559 40.0993 18.3498H40.6381L39.1227 22.6601ZM64.4413 5.90705C63.9024 5.90705 63.4703 5.94072 63.1448 6.00806C62.8193 6.07541 62.5667 6.20451 62.3871 6.39532C62.2188 6.57492 62.1065 6.82748 62.0504 7.153C62.0055 7.47853 61.983 7.89945 61.983 8.4158V22.9295H61.5453L50.1632 9.07246V19.6631C50.1632 20.2019 50.1857 20.634 50.2306 20.9596C50.2867 21.2851 50.399 21.5377 50.5674 21.7173C50.7357 21.8969 50.9826 22.0203 51.3081 22.0876C51.6337 22.1438 52.0659 22.1719 52.6046 22.1719V22.6601H46.6106V22.1719C47.1493 22.1719 47.5759 22.1382 47.8902 22.0709C48.2157 22.0035 48.4626 21.88 48.631 21.7004C48.7994 21.5096 48.9117 21.2514 48.9678 20.9259C49.0239 20.6003 49.052 20.1795 49.052 19.6631V7.6918C48.8387 7.39995 48.6366 7.14739 48.4459 6.93412C48.2663 6.70962 48.0698 6.52441 47.8565 6.37849C47.6545 6.22134 47.4188 6.10348 47.1493 6.0249C46.88 5.94633 46.5488 5.90705 46.1559 5.90705V5.45244H50.3653L60.8886 18.3498V8.4158C60.8886 7.89945 60.8606 7.47853 60.8044 7.153C60.7482 6.82748 60.6304 6.57492 60.4508 6.39532C60.2824 6.20451 60.0355 6.07541 59.71 6.00806C59.3957 5.94072 58.9691 5.90705 58.4303 5.90705V5.45244H64.4413V5.90705ZM75.9027 7.57394C75.9027 8.2362 75.7737 8.80867 75.5154 9.29133C75.2685 9.76278 74.9655 10.1612 74.6063 10.4867C74.2583 10.8011 73.8991 11.048 73.5286 11.2276C73.1583 11.4072 72.8495 11.5419 72.6026 11.6318V11.0761C72.8272 10.9414 73.0628 10.7955 73.3098 10.6384C73.568 10.4811 73.7981 10.296 74.0002 10.0827C74.2134 9.8694 74.3874 9.6337 74.522 9.37552C74.6681 9.10613 74.741 8.79744 74.741 8.44947C74.741 8.12396 74.6736 7.91629 74.5389 7.8265C74.4154 7.72547 74.3201 7.67496 74.2527 7.67496C74.1405 7.67496 73.9946 7.70864 73.815 7.77598C73.6353 7.84333 73.467 7.87701 73.3098 7.87701C73.1639 7.87701 73.0123 7.84894 72.8551 7.79282C72.7092 7.72547 72.5746 7.63567 72.4511 7.52342C72.3277 7.41118 72.2266 7.27086 72.1481 7.10249C72.0694 6.93412 72.0301 6.7433 72.0301 6.53002C72.0301 6.27186 72.0807 6.05297 72.1817 5.87337C72.294 5.68255 72.4343 5.53101 72.6026 5.41876C72.771 5.29529 72.9506 5.20549 73.1415 5.14936C73.3434 5.08201 73.5343 5.04834 73.7139 5.04834C73.9721 5.04834 74.2302 5.11008 74.4884 5.23355C74.7466 5.3458 74.9823 5.51417 75.1955 5.73867C75.4088 5.95195 75.5772 6.21573 75.7007 6.53002C75.8353 6.8331 75.9027 7.18107 75.9027 7.57394ZM92.2975 19.7305C92.2975 20.2356 92.1797 20.6902 91.9439 21.0942C91.7082 21.4984 91.4052 21.8463 91.0348 22.1382C90.6643 22.43 90.2434 22.6545 89.772 22.8117C89.3117 22.9688 88.8515 23.0474 88.3913 23.0474C88.1218 23.0474 87.8413 23.0025 87.5494 22.9127C87.2688 22.8341 86.9938 22.7443 86.7244 22.6433C86.455 22.5423 86.1968 22.4525 85.9499 22.3739C85.7142 22.2841 85.4952 22.2393 85.2933 22.2393C85.2483 22.2393 85.1978 22.2672 85.1416 22.3234C85.0968 22.3683 85.0519 22.4244 85.007 22.4918C84.9733 22.5479 84.9397 22.6096 84.906 22.677C84.8835 22.7443 84.8611 22.7948 84.8386 22.8285H84.4009V18.6865H84.8386C84.9284 19.1467 85.0687 19.5902 85.2596 20.0167C85.4504 20.4432 85.6917 20.8249 85.9835 21.1616C86.2867 21.4871 86.6346 21.7509 87.0275 21.953C87.4316 22.1438 87.8862 22.2393 88.3913 22.2393C88.6494 22.2393 88.8964 22.2056 89.1321 22.1382C89.3791 22.0596 89.5924 21.9473 89.772 21.8014C89.9627 21.6555 90.1143 21.4759 90.2266 21.2626C90.3388 21.0494 90.3949 20.8024 90.3949 20.5218C90.3949 19.983 90.2434 19.534 89.9404 19.1748C89.6484 18.8044 89.2781 18.4789 88.829 18.1983C88.3801 17.9177 87.8974 17.6538 87.3811 17.4069C86.8647 17.1487 86.382 16.8625 85.9331 16.5482C85.484 16.2227 85.1081 15.8466 84.8049 15.4201C84.5131 14.9823 84.3672 14.4436 84.3672 13.8037C84.3672 13.265 84.4738 12.8047 84.6871 12.4231C84.9004 12.0302 85.181 11.7047 85.5289 11.4465C85.8769 11.1883 86.2754 10.9975 86.7244 10.874C87.1846 10.7506 87.6504 10.6888 88.1218 10.6888C88.3464 10.6888 88.5653 10.7113 88.7786 10.7562C88.9918 10.8011 89.2051 10.8572 89.4184 10.9246C89.6316 10.9806 89.8393 11.0312 90.0414 11.0761C90.2547 11.121 90.4679 11.1434 90.6812 11.1434C90.8158 11.1434 90.9225 11.0986 91.0011 11.0087C91.0909 10.919 91.1638 10.8123 91.22 10.6888H91.6746V14.6624H91.22C91.1301 14.2471 91.0011 13.8486 90.8327 13.4669C90.6755 13.0741 90.4735 12.7262 90.2266 12.4231C89.9796 12.12 89.6765 11.8787 89.3173 11.6991C88.9693 11.5082 88.5597 11.4129 88.0882 11.4129C87.8413 11.4129 87.5831 11.4353 87.3137 11.4801C87.0555 11.5251 86.8142 11.6037 86.5897 11.7159C86.3764 11.8281 86.1968 11.9853 86.0509 12.1873C85.9162 12.3894 85.8488 12.6531 85.8488 12.9787C85.8488 13.5399 86.006 14.0001 86.3203 14.3594C86.6458 14.7073 87.0443 15.016 87.5157 15.2854C87.9984 15.5436 88.5148 15.7905 89.0648 16.0263C89.626 16.262 90.1423 16.537 90.6138 16.8513C91.0965 17.1543 91.495 17.536 91.8092 17.9962C92.1348 18.4452 92.2975 19.0233 92.2975 19.7305ZM128.489 13.9721C128.489 15.4314 128.247 16.7054 127.765 17.7941C127.282 18.8718 126.608 19.7753 125.744 20.505C124.891 21.2234 123.875 21.7621 122.697 22.1213C121.517 22.4805 120.238 22.6601 118.857 22.6601H111.179V22.1719C111.718 22.1719 112.145 22.1382 112.459 22.0709C112.784 22.0035 113.032 21.88 113.2 21.7004C113.368 21.5096 113.481 21.2514 113.537 20.9259C113.593 20.5891 113.621 20.157 113.621 19.6294V8.48315C113.621 7.94436 113.599 7.50659 113.554 7.16984C113.508 6.8331 113.402 6.57492 113.233 6.39532C113.065 6.20451 112.819 6.07541 112.493 6.00806C112.167 5.94072 111.73 5.90705 111.179 5.90705V5.45244H118.167C119.615 5.45244 120.967 5.58714 122.225 5.85654C123.482 6.12593 124.57 6.59176 125.492 7.25402C126.423 7.90507 127.153 8.775 127.68 9.86379C128.219 10.9527 128.489 12.322 128.489 13.9721ZM125.626 14.0731C125.626 13.0067 125.475 12.0133 125.171 11.093C124.88 10.1612 124.436 9.34746 123.841 8.65152C123.257 7.95558 122.534 7.41118 121.669 7.01831C120.816 6.61421 119.823 6.41216 118.689 6.41216C118.24 6.41216 117.797 6.44584 117.359 6.51319C116.932 6.58054 116.5 6.67595 116.062 6.79942V21.4142C116.466 21.5264 116.904 21.6218 117.375 21.7004C117.847 21.7677 118.307 21.8014 118.757 21.8014C119.879 21.8014 120.867 21.5994 121.72 21.1953C122.572 20.7799 123.286 20.2244 123.858 19.5284C124.441 18.8212 124.88 18.0018 125.171 17.0702C125.475 16.1272 125.626 15.1282 125.626 14.0731ZM148.099 22.6601H134.865V22.1719C135.404 22.1719 135.831 22.1382 136.145 22.0709C136.47 22.0035 136.717 21.88 136.886 21.7004C137.054 21.5096 137.166 21.2514 137.222 20.9259C137.278 20.5891 137.306 20.157 137.306 19.6294V8.4158C137.306 7.87701 137.284 7.44485 137.239 7.11932C137.194 6.79381 137.088 6.54125 136.919 6.36165C136.751 6.18205 136.503 6.06419 136.178 6.00806C135.852 5.94072 135.415 5.90705 134.865 5.90705V5.45244H148.099L148.301 9.20715H147.83C147.684 8.65714 147.544 8.20253 147.409 7.84333C147.286 7.47291 147.111 7.18107 146.887 6.9678C146.674 6.75452 146.376 6.60299 145.994 6.51319C145.624 6.42338 145.119 6.37849 144.479 6.37849H139.731V13.1807H143.519C144.047 13.1807 144.468 13.147 144.782 13.0797C145.107 13.0011 145.366 12.8721 145.557 12.6925C145.759 12.5016 145.904 12.2491 145.994 11.9348C146.096 11.6093 146.179 11.1939 146.247 10.6888H146.718V16.6997H146.247C146.179 16.1946 146.096 15.7794 145.994 15.4537C145.904 15.1282 145.765 14.8701 145.573 14.6793C145.382 14.4772 145.124 14.3369 144.799 14.2584C144.485 14.1797 144.058 14.1404 143.519 14.1404H139.731V19.7978C139.731 20.1121 139.737 20.3928 139.748 20.6396C139.77 20.8754 139.827 21.0775 139.916 21.2459C140.006 21.403 140.146 21.5264 140.337 21.6162C140.539 21.6948 140.82 21.7341 141.179 21.7341H144.075C144.827 21.7341 145.444 21.6724 145.927 21.5489C146.41 21.4254 146.825 21.229 147.173 20.9596C147.532 20.6902 147.852 20.3422 148.133 19.9157C148.414 19.4779 148.728 18.9559 149.076 18.3498H149.615L148.099 22.6601ZM173.418 5.90705C172.879 5.90705 172.446 5.94072 172.121 6.00806C171.796 6.07541 171.543 6.20451 171.364 6.39532C171.195 6.57492 171.083 6.82748 171.027 7.153C170.982 7.47853 170.96 7.89945 170.96 8.4158V22.9295H170.521L159.14 9.07246V19.6631C159.14 20.2019 159.162 20.634 159.207 20.9596C159.263 21.2851 159.375 21.5377 159.544 21.7173C159.712 21.8969 159.959 22.0203 160.285 22.0876C160.61 22.1438 161.042 22.1719 161.581 22.1719V22.6601H155.587V22.1719C156.126 22.1719 156.553 22.1382 156.867 22.0709C157.192 22.0035 157.439 21.88 157.607 21.7004C157.775 21.5096 157.888 21.2514 157.944 20.9259C158 20.6003 158.029 20.1795 158.029 19.6631V7.6918C157.815 7.39995 157.613 7.14739 157.422 6.93412C157.242 6.70962 157.046 6.52441 156.832 6.37849C156.631 6.22134 156.395 6.10348 156.126 6.0249C155.856 5.94633 155.525 5.90705 155.132 5.90705V5.45244H159.342L169.865 18.3498V8.4158C169.865 7.89945 169.836 7.47853 169.78 7.153C169.724 6.82748 169.607 6.57492 169.428 6.39532C169.259 6.20451 169.012 6.07541 168.687 6.00806C168.372 5.94072 167.946 5.90705 167.407 5.90705V5.45244H173.418V5.90705ZM193.264 9.49338C193.163 8.51682 192.866 7.78159 192.371 7.2877C191.878 6.78259 191.12 6.53002 190.099 6.53002H187.691V19.6631C187.691 20.1907 187.713 20.6172 187.759 20.9427C187.803 21.2682 187.909 21.5264 188.078 21.7173C188.246 21.8969 188.488 22.0203 188.802 22.0876C189.128 22.1438 189.56 22.1719 190.099 22.1719V22.6601H182.825V22.1719C183.364 22.1719 183.79 22.1382 184.104 22.0709C184.419 22.0035 184.66 21.88 184.829 21.7004C184.997 21.5096 185.103 21.2514 185.149 20.9259C185.205 20.6003 185.232 20.1795 185.232 19.6631V6.53002H183.162C182.623 6.53002 182.152 6.58054 181.748 6.68156C181.343 6.77135 181.001 6.92851 180.72 7.153C180.451 7.3775 180.237 7.68058 180.081 8.06222C179.935 8.44387 179.839 8.92092 179.794 9.49338H179.205L179.373 5.45244H193.651L193.82 9.49338H193.264Z" fill="#1D7CF8"/>
<path d="M194.498 29.5566H1.39417V40.3941H194.498V29.5566Z" fill="#1D7CF8"/>
<path d="M11.5878 36.5221C11.2614 36.5221 10.9694 36.4554 10.712 36.3221C10.4591 36.1888 10.2591 35.9819 10.112 35.7014C9.96942 35.421 9.89819 35.0623 9.89819 34.6256C9.89819 34.1704 9.97406 33.8003 10.1258 33.5152C10.2775 33.2302 10.4821 33.021 10.7396 32.8877C11.0016 32.7544 11.2982 32.6877 11.6292 32.6877C11.8177 32.6877 11.9994 32.7083 12.1741 32.7497C12.3487 32.7865 12.4913 32.8325 12.6016 32.8877L12.4154 33.3911C12.3051 33.3497 12.1763 33.3106 12.0292 33.2739C11.8821 33.2371 11.7442 33.2187 11.6154 33.2187C10.889 33.2187 10.5258 33.6854 10.5258 34.6187C10.5258 35.0647 10.6132 35.4072 10.7878 35.6463C10.9672 35.8808 11.2315 35.998 11.581 35.998C11.7832 35.998 11.9603 35.9773 12.112 35.9359C12.2683 35.8946 12.4108 35.844 12.5396 35.7842V36.3221C12.4154 36.3865 12.2775 36.4347 12.1258 36.467C11.9787 36.5037 11.7994 36.5221 11.5878 36.5221ZM19.6739 32.6877C19.9911 32.6877 20.2623 32.7566 20.4877 32.8946C20.7175 33.0325 20.8923 33.2279 21.0118 33.4808C21.1359 33.729 21.198 34.021 21.198 34.3566V34.7221H18.667C18.6761 35.1406 18.7819 35.4601 18.9842 35.6808C19.1911 35.8968 19.4785 36.0049 19.8463 36.0049C20.0808 36.0049 20.2877 35.9842 20.467 35.9428C20.6509 35.8968 20.8394 35.8325 21.0325 35.7497V36.2808C20.844 36.3635 20.6578 36.4233 20.4739 36.4601C20.2899 36.5014 20.0716 36.5221 19.8187 36.5221C19.4692 36.5221 19.1589 36.4509 18.8877 36.3083C18.621 36.1658 18.4118 35.9544 18.2601 35.6739C18.113 35.3888 18.0394 35.0416 18.0394 34.6325C18.0394 34.2279 18.1061 33.8808 18.2394 33.5911C18.3773 33.3014 18.5681 33.0785 18.8118 32.9221C19.0601 32.7658 19.3475 32.6877 19.6739 32.6877ZM19.667 33.1842C19.3773 33.1842 19.1475 33.2785 18.9773 33.467C18.8118 33.6509 18.713 33.9083 18.6808 34.2394H20.5635C20.5589 33.9268 20.4854 33.6739 20.3428 33.4808C20.2003 33.283 19.975 33.1842 19.667 33.1842ZM30.9322 32.7566V36.4532H30.3874V34.0946C30.3874 33.998 30.3896 33.8968 30.3943 33.7911C30.4034 33.6854 30.4126 33.5819 30.4218 33.4808H30.4012L29.1943 36.4532H28.6839L27.5115 33.4808H27.4908C27.5046 33.6877 27.5115 33.8992 27.5115 34.1152V36.4532H26.9667V32.7566H27.7736L28.9391 35.729L30.1253 32.7566H30.9322ZM38.3673 32.6877C38.6845 32.6877 38.9558 32.7566 39.1811 32.8946C39.411 33.0325 39.5857 33.2279 39.7052 33.4808C39.8293 33.729 39.8914 34.021 39.8914 34.3566V34.7221H37.3604C37.3696 35.1406 37.4753 35.4601 37.6776 35.6808C37.8845 35.8968 38.1719 36.0049 38.5397 36.0049C38.7742 36.0049 38.9811 35.9842 39.1604 35.9428C39.3443 35.8968 39.5328 35.8325 39.7259 35.7497V36.2808C39.5374 36.3635 39.3512 36.4233 39.1673 36.4601C38.9834 36.5014 38.765 36.5221 38.5121 36.5221C38.1627 36.5221 37.8524 36.4509 37.5811 36.3083C37.3145 36.1658 37.1052 35.9544 36.9535 35.6739C36.8064 35.3888 36.7328 35.0416 36.7328 34.6325C36.7328 34.2279 36.7995 33.8808 36.9328 33.5911C37.0707 33.3014 37.2615 33.0785 37.5052 32.9221C37.7535 32.7658 38.0409 32.6877 38.3673 32.6877ZM38.3604 33.1842C38.0707 33.1842 37.8409 33.2785 37.6707 33.467C37.5052 33.6509 37.4064 33.9083 37.3742 34.2394H39.2569C39.2524 33.9268 39.1788 33.6739 39.0362 33.4808C38.8938 33.283 38.6684 33.1842 38.3604 33.1842ZM46.2325 32.7566V35.0118C46.2325 35.067 46.2302 35.1497 46.2256 35.2601C46.221 35.3704 46.2141 35.4808 46.2049 35.5911C46.2003 35.7014 46.1957 35.7888 46.1911 35.8532L48.1704 32.7566H48.9152V36.4532H48.3497V34.2739C48.3497 34.2003 48.3497 34.1037 48.3497 33.9842C48.3544 33.8647 48.3589 33.7475 48.3635 33.6325C48.3682 33.513 48.3727 33.4233 48.3773 33.3635L46.4118 36.4532H45.6601V32.7566H46.2325ZM48.6532 31.2256C48.621 31.5704 48.5037 31.8325 48.3015 32.0118C48.1037 32.1865 47.7865 32.2739 47.3497 32.2739C46.8992 32.2739 46.5796 32.1865 46.3911 32.0118C46.2072 31.8371 46.1037 31.575 46.0808 31.2256H46.6463C46.6692 31.4739 46.7337 31.6416 46.8394 31.729C46.9497 31.8118 47.1244 31.8532 47.3635 31.8532C47.575 31.8532 47.7406 31.8095 47.8601 31.7221C47.9842 31.6302 48.0578 31.4647 48.0808 31.2256H48.6532ZM55.5261 32.7566V34.2946H57.533V32.7566H58.1399V36.4532H57.533V34.8049H55.5261V36.4532H54.9192V32.7566H55.5261ZM65.538 32.6946C65.9885 32.6946 66.3218 32.7934 66.538 32.9911C66.7541 33.1888 66.8621 33.5037 66.8621 33.9359V36.4532H66.4208L66.3035 35.929H66.2759C66.115 36.1313 65.9449 36.2808 65.7656 36.3773C65.5908 36.4739 65.3472 36.5221 65.0346 36.5221C64.6989 36.5221 64.4208 36.4348 64.2001 36.2601C63.9794 36.0808 63.869 35.8026 63.869 35.4256C63.869 35.0578 64.0139 34.775 64.3035 34.5773C64.5932 34.375 65.0391 34.2647 65.6415 34.2463L66.269 34.2256V34.0049C66.269 33.6968 66.2023 33.483 66.069 33.3635C65.9356 33.244 65.7472 33.1842 65.5035 33.1842C65.3104 33.1842 65.1265 33.2141 64.9518 33.2739C64.777 33.329 64.6139 33.3934 64.4621 33.467L64.2759 33.0118C64.4368 32.9244 64.6277 32.8509 64.8483 32.7911C65.069 32.7268 65.2989 32.6946 65.538 32.6946ZM66.2621 34.6463L65.7173 34.667C65.2575 34.6854 64.938 34.7589 64.7587 34.8877C64.5839 35.0164 64.4966 35.198 64.4966 35.4325C64.4966 35.6394 64.5587 35.7911 64.6828 35.8877C64.8115 35.9842 64.9748 36.0325 65.1725 36.0325C65.4851 36.0325 65.7449 35.9475 65.9518 35.7773C66.1587 35.6026 66.2621 35.3359 66.2621 34.9773V34.6463ZM73.059 36.4532H72.3555L73.4107 34.9014C73.2682 34.8647 73.1302 34.8072 72.9969 34.729C72.8636 34.6463 72.7555 34.5337 72.6728 34.3911C72.59 34.244 72.5486 34.0623 72.5486 33.8463C72.5486 33.4923 72.6682 33.2233 72.9073 33.0394C73.1464 32.8509 73.4636 32.7566 73.859 32.7566H75.5142V36.4532H74.9073V34.9842H74.0107L73.059 36.4532ZM73.1349 33.8532C73.1349 34.0647 73.213 34.2233 73.3693 34.329C73.5302 34.4302 73.7533 34.4808 74.0383 34.4808H74.9073V33.2601H73.9211C73.6406 33.2601 73.4383 33.3152 73.3142 33.4256C73.1947 33.5359 73.1349 33.6785 73.1349 33.8532ZM89.5728 36.5221C89.2464 36.5221 88.9544 36.4554 88.6969 36.3221C88.444 36.1888 88.244 35.9819 88.0969 35.7014C87.9544 35.421 87.8831 35.0623 87.8831 34.6256C87.8831 34.1704 87.959 33.8003 88.1107 33.5152C88.2624 33.2302 88.4671 33.021 88.7245 32.8877C88.9866 32.7544 89.2831 32.6877 89.6142 32.6877C89.8026 32.6877 89.9843 32.7083 90.159 32.7497C90.3337 32.7865 90.4762 32.8325 90.5866 32.8877L90.4004 33.3911C90.29 33.3497 90.1613 33.3106 90.0142 33.2739C89.8671 33.2371 89.7291 33.2187 89.6004 33.2187C88.874 33.2187 88.5107 33.6854 88.5107 34.6187C88.5107 35.0647 88.5981 35.4072 88.7728 35.6463C88.9521 35.8808 89.2164 35.998 89.5659 35.998C89.7682 35.998 89.9452 35.9773 90.0969 35.9359C90.2533 35.8946 90.3957 35.844 90.5245 35.7842V36.3221C90.4004 36.3865 90.2624 36.4347 90.1107 36.467C89.9636 36.5037 89.7843 36.5221 89.5728 36.5221ZM98.7832 33.267H97.576V36.4532H96.976V33.267H95.7829V32.7566H98.7832V33.267ZM107.485 34.598C107.485 35.2095 107.329 35.683 107.016 36.0187C106.708 36.3544 106.29 36.5221 105.761 36.5221C105.434 36.5221 105.143 36.4485 104.885 36.3014C104.632 36.1497 104.432 35.9313 104.285 35.6463C104.138 35.3566 104.064 35.0072 104.064 34.598C104.064 33.9865 104.219 33.5152 104.526 33.1842C104.834 32.8532 105.253 32.6877 105.781 32.6877C106.117 32.6877 106.412 32.7635 106.664 32.9152C106.922 33.0623 107.122 33.2785 107.264 33.5635C107.412 33.844 107.485 34.1888 107.485 34.598ZM104.692 34.598C104.692 35.0347 104.777 35.3819 104.947 35.6394C105.122 35.8923 105.398 36.0187 105.774 36.0187C106.147 36.0187 106.421 35.8923 106.595 35.6394C106.77 35.3819 106.857 35.0347 106.857 34.598C106.857 34.1613 106.77 33.8187 106.595 33.5704C106.421 33.3221 106.145 33.198 105.767 33.198C105.391 33.198 105.117 33.3221 104.947 33.5704C104.777 33.8187 104.692 34.1613 104.692 34.598ZM117.24 32.7566V36.4532H116.696V34.0946C116.696 33.998 116.698 33.8968 116.702 33.7911C116.711 33.6854 116.72 33.5819 116.73 33.4808H116.709L115.502 36.4532H114.992L113.82 33.4808H113.799C113.813 33.6877 113.82 33.8992 113.82 34.1152V36.4532H113.275V32.7566H114.082L115.247 35.729L116.433 32.7566H117.24ZM124.647 32.6946C125.099 32.6946 125.432 32.7934 125.647 32.9911C125.864 33.1888 125.971 33.5037 125.971 33.9359V36.4532H125.53L125.413 35.929H125.385C125.225 36.1313 125.054 36.2808 124.875 36.3773C124.7 36.4739 124.457 36.5221 124.144 36.5221C123.809 36.5221 123.53 36.4348 123.309 36.2601C123.089 36.0808 122.978 35.8026 122.978 35.4256C122.978 35.0578 123.123 34.775 123.413 34.5773C123.702 34.375 124.149 34.2647 124.751 34.2463L125.378 34.2256V34.0049C125.378 33.6968 125.312 33.483 125.178 33.3635C125.045 33.244 124.857 33.1842 124.613 33.1842C124.42 33.1842 124.236 33.2141 124.061 33.2739C123.887 33.329 123.723 33.3934 123.571 33.467L123.385 33.0118C123.547 32.9244 123.737 32.8509 123.958 32.7911C124.178 32.7268 124.409 32.6946 124.647 32.6946ZM125.371 34.6463L124.827 34.667C124.367 34.6854 124.047 34.7589 123.868 34.8877C123.694 35.0164 123.606 35.198 123.606 35.4325C123.606 35.6394 123.668 35.7911 123.792 35.8877C123.921 35.9842 124.085 36.0325 124.282 36.0325C124.595 36.0325 124.854 35.9475 125.061 35.7773C125.268 35.6026 125.371 35.3359 125.371 34.9773V34.6463ZM134.493 33.267H133.286V36.4532H132.686V33.267H131.493V32.7566H134.493V33.267ZM143.195 34.598C143.195 35.2095 143.038 35.683 142.726 36.0187C142.418 36.3544 142 36.5221 141.471 36.5221C141.145 36.5221 140.852 36.4485 140.595 36.3014C140.342 36.1497 140.142 35.9313 139.995 35.6463C139.848 35.3566 139.774 35.0072 139.774 34.598C139.774 33.9865 139.928 33.5152 140.236 33.1842C140.545 32.8532 140.963 32.6877 141.492 32.6877C141.828 32.6877 142.121 32.7635 142.374 32.9152C142.631 33.0623 142.832 33.2785 142.974 33.5635C143.121 33.844 143.195 34.1888 143.195 34.598ZM140.402 34.598C140.402 35.0347 140.487 35.3819 140.657 35.6394C140.832 35.8923 141.107 36.0187 141.485 36.0187C141.857 36.0187 142.131 35.8923 142.305 35.6394C142.48 35.3819 142.567 35.0347 142.567 34.598C142.567 34.1613 142.48 33.8187 142.305 33.5704C142.131 33.3221 141.855 33.198 141.478 33.198C141.1 33.198 140.828 33.3221 140.657 33.5704C140.487 33.8187 140.402 34.1613 140.402 34.598ZM151.798 36.4532H151.184V33.2601H150.095C150.035 34.0371 149.953 34.6647 149.846 35.1428C149.741 35.6164 149.601 35.9613 149.426 36.1773C149.251 36.3934 149.031 36.5014 148.764 36.5014C148.704 36.5014 148.644 36.4968 148.584 36.4877C148.529 36.483 148.484 36.4716 148.446 36.4532V35.998C148.474 36.0072 148.504 36.0141 148.536 36.0187C148.568 36.0233 148.601 36.0256 148.633 36.0256C148.881 36.0256 149.079 35.7613 149.226 35.2325C149.377 34.7037 149.493 33.8785 149.57 32.7566H151.798V36.4532ZM161.013 34.598C161.013 35.2095 160.856 35.683 160.544 36.0187C160.235 36.3544 159.818 36.5221 159.289 36.5221C158.963 36.5221 158.67 36.4485 158.413 36.3014C158.16 36.1497 157.96 35.9313 157.813 35.6463C157.666 35.3566 157.592 35.0072 157.592 34.598C157.592 33.9865 157.746 33.5152 158.054 33.1842C158.363 32.8532 158.78 32.6877 159.309 32.6877C159.645 32.6877 159.939 32.7635 160.192 32.9152C160.449 33.0623 160.649 33.2785 160.792 33.5635C160.939 33.844 161.013 34.1888 161.013 34.598ZM158.22 34.598C158.22 35.0347 158.304 35.3819 158.475 35.6394C158.649 35.8923 158.925 36.0187 159.302 36.0187C159.675 36.0187 159.949 35.8923 160.123 35.6394C160.298 35.3819 160.385 35.0347 160.385 34.598C160.385 34.1613 160.298 33.8187 160.123 33.5704C159.949 33.3221 159.673 33.198 159.296 33.198C158.918 33.198 158.645 33.3221 158.475 33.5704C158.304 33.8187 158.22 34.1613 158.22 34.598ZM169.057 32.7566V33.267H167.409V36.4532H166.802V32.7566H169.057ZM175.186 32.7566V35.0118C175.186 35.067 175.183 35.1497 175.179 35.2601C175.174 35.3704 175.167 35.4808 175.159 35.5911C175.154 35.7014 175.149 35.7888 175.145 35.8532L177.124 32.7566H177.869V36.4532H177.303V34.2739C177.303 34.2003 177.303 34.1037 177.303 33.9842C177.307 33.8647 177.312 33.7475 177.317 33.6325C177.321 33.513 177.326 33.4233 177.331 33.3635L175.366 36.4532H174.614V32.7566H175.186ZM184.1 36.4532H183.397L184.452 34.9014C184.309 34.8647 184.171 34.8072 184.038 34.729C183.904 34.6463 183.797 34.5337 183.714 34.3911C183.632 34.244 183.59 34.0623 183.59 33.8463C183.59 33.4923 183.709 33.2233 183.949 33.0394C184.187 32.8509 184.504 32.7566 184.9 32.7566H186.556V36.4532H185.949V34.9842H185.052L184.1 36.4532ZM184.176 33.8532C184.176 34.0647 184.254 34.2233 184.411 34.329C184.571 34.4302 184.794 34.4808 185.08 34.4808H185.949V33.2601H184.963C184.682 33.2601 184.48 33.3152 184.356 33.4256C184.235 33.5359 184.176 33.6785 184.176 33.8532Z" fill="white"/>
</g>
<defs>
<clipPath id="clip0">
<rect width="200" height="40.3941" fill="white"/>
</clipPath>
</defs>
</svg>
