<svg width="400" height="400" viewBox="0 0 400 400" fill="none" xmlns="http://www.w3.org/2000/svg">
<path d="M109.375 87.5C100.75 87.5 93.75 80.5 93.75 71.875C93.75 63.25 100.75 56.25 109.375 56.25C118 56.25 125 63.25 125 71.875C125 80.5 118 87.5 109.375 87.5ZM109.375 62.5C104.187 62.5 100 66.7188 100 71.875C100 77.0625 104.187 81.25 109.375 81.25C114.531 81.25 118.75 77.0625 118.75 71.875C118.75 66.7188 114.531 62.5 109.375 62.5Z" fill="#1D7CF8"/>
<path d="M346.875 343.75C338.25 343.75 331.25 336.75 331.25 328.125C331.25 319.5 338.25 312.5 346.875 312.5C355.5 312.5 362.5 319.5 362.5 328.125C362.5 336.75 355.5 343.75 346.875 343.75ZM346.875 318.75C341.687 318.75 337.5 322.969 337.5 328.125C337.5 333.313 341.687 337.5 346.875 337.5C352.031 337.5 356.25 333.313 356.25 328.125C356.25 322.969 352.031 318.75 346.875 318.75Z" fill="#FFC909"/>
<path d="M186.437 41.9375C185.781 41.5625 182.469 39.7813 181.594 39.2813C180.719 38.7813 179.969 38.0625 179.469 37.1563C178.969 36.25 177.187 32.9688 176.812 32.3125C176.437 31.6563 175.75 31.25 175 31.25C174.25 31.25 173.563 31.6563 173.188 32.3125C172.813 32.9688 171.031 36.2813 170.531 37.1563C170.031 38.0625 169.313 38.7813 168.406 39.2813C167.5 39.7813 164.219 41.5625 163.563 41.9375C162.906 42.3125 162.5 43 162.5 43.75C162.5 44.5 162.906 45.1875 163.563 45.5625C164.219 45.9375 167.531 47.7187 168.406 48.2187C169.313 48.7187 170.031 49.4375 170.531 50.3437C171.031 51.25 172.813 54.5312 173.188 55.1875C173.563 55.8437 174.25 56.25 175 56.25C175.75 56.25 176.437 55.8437 176.812 55.1875C177.187 54.5312 178.969 51.2187 179.469 50.3437C179.969 49.4375 180.687 48.7187 181.594 48.2187C182.5 47.7187 185.781 45.9375 186.437 45.5625C187.094 45.1875 187.5 44.5 187.5 43.75C187.5 43 187.094 42.3125 186.437 41.9375Z" fill="#FFC909"/>
<path d="M292.687 348.187C292.031 347.812 288.719 346.031 287.844 345.531C286.969 345.031 286.219 344.313 285.719 343.406C285.219 342.5 283.438 339.219 283.063 338.563C282.688 337.906 282 337.5 281.25 337.5C280.5 337.5 279.812 337.906 279.437 338.563C279.062 339.219 277.281 342.531 276.781 343.406C276.281 344.281 275.563 345.031 274.656 345.531C273.75 346.031 270.469 347.812 269.813 348.187C269.156 348.562 268.75 349.25 268.75 350C268.75 350.75 269.156 351.438 269.813 351.813C270.469 352.188 273.781 353.969 274.656 354.469C275.531 354.969 276.281 355.687 276.781 356.594C277.281 357.5 279.062 360.781 279.437 361.437C279.812 362.094 280.5 362.5 281.25 362.5C282 362.5 282.688 362.094 283.063 361.437C283.438 360.781 285.219 357.469 285.719 356.594C286.219 355.719 286.937 354.969 287.844 354.469C288.75 353.969 292.031 352.188 292.687 351.813C293.344 351.438 293.75 350.75 293.75 350C293.75 349.25 293.344 348.562 292.687 348.187Z" fill="#FF9E00"/>
<path d="M99.1875 314.281C98.6875 314 96.2187 312.656 95.5625 312.281C94.9063 311.906 94.3438 311.375 93.9688 310.687C93.5938 310.031 92.25 307.531 91.9688 307.062C91.6875 306.562 91.1875 306.25 90.5938 306.25C90 306.25 89.5 306.562 89.2188 307.062C88.9375 307.562 87.5937 310.031 87.2187 310.687C86.8437 311.344 86.3125 311.906 85.625 312.281C84.9688 312.656 82.5 314 82 314.281C81.5 314.562 81.1875 315.063 81.1875 315.625C81.1875 316.187 81.5 316.719 82 316.969C82.5 317.25 84.9688 318.594 85.625 318.969C86.2813 319.344 86.8437 319.875 87.2187 320.563C87.5937 321.219 88.9375 323.719 89.2188 324.188C89.5 324.688 90 325 90.5938 325C91.1875 325 91.6875 324.688 91.9688 324.188C92.25 323.688 93.5938 321.219 93.9688 320.563C94.3438 319.906 94.875 319.344 95.5625 318.969C96.2187 318.594 98.6875 317.25 99.1875 316.969C99.6875 316.688 100 316.187 100 315.625C100 315.063 99.6875 314.531 99.1875 314.281Z" fill="#1D7CF8"/>
<path d="M280.437 51.7813C279.937 51.5 277.469 50.1562 276.812 49.7812C276.156 49.4062 275.594 48.875 275.219 48.1875C274.844 47.5313 273.5 45.0312 273.219 44.5625C272.938 44.0625 272.437 43.75 271.844 43.75C271.25 43.75 270.75 44.0625 270.469 44.5625C270.187 45.0625 268.844 47.5313 268.469 48.1875C268.094 48.8438 267.562 49.4062 266.875 49.7812C266.219 50.1562 263.75 51.5 263.25 51.7813C262.75 52.0625 262.438 52.5625 262.438 53.125C262.438 53.6875 262.75 54.2187 263.25 54.4687C263.75 54.75 266.219 56.0938 266.875 56.4688C267.531 56.8438 268.094 57.375 268.469 58.0625C268.844 58.7187 270.187 61.2188 270.469 61.6875C270.75 62.1875 271.25 62.5 271.844 62.5C272.437 62.5 272.938 62.1875 273.219 61.6875C273.5 61.1875 274.844 58.7187 275.219 58.0625C275.594 57.4062 276.125 56.8438 276.812 56.4688C277.469 56.0938 279.937 54.75 280.437 54.4687C280.937 54.1875 281.25 53.6875 281.25 53.125C281.25 52.5625 280.937 52.0313 280.437 51.7813Z" fill="#1D7CF8"/>
<path d="M399.187 151.781C398.687 151.5 396.219 150.156 395.562 149.781C394.906 149.406 394.344 148.875 393.969 148.188C393.594 147.531 392.25 145.031 391.969 144.562C391.688 144.062 391.187 143.75 390.594 143.75C390 143.75 389.5 144.062 389.219 144.562C388.937 145.062 387.594 147.531 387.219 148.188C386.844 148.844 386.312 149.406 385.625 149.781C384.969 150.156 382.5 151.5 382 151.781C381.5 152.063 381.188 152.563 381.188 153.125C381.188 153.687 381.5 154.219 382 154.469C382.5 154.75 384.969 156.094 385.625 156.469C386.281 156.844 386.844 157.375 387.219 158.062C387.594 158.719 388.937 161.219 389.219 161.688C389.5 162.188 390 162.5 390.594 162.5C391.187 162.5 391.688 162.188 391.969 161.688C392.25 161.188 393.594 158.719 393.969 158.062C394.344 157.406 394.875 156.844 395.562 156.469C396.219 156.094 398.687 154.75 399.187 154.469C399.687 154.187 400 153.687 400 153.125C400 152.563 399.687 152.031 399.187 151.781Z" fill="#FFC909"/>
<path d="M329.688 40.625C332.276 40.625 334.375 38.5263 334.375 35.9375C334.375 33.3487 332.276 31.25 329.688 31.25C327.099 31.25 325 33.3487 325 35.9375C325 38.5263 327.099 40.625 329.688 40.625Z" fill="#FF9E00"/>
<path d="M48.4375 346.875C51.0263 346.875 53.125 344.776 53.125 342.188C53.125 339.599 51.0263 337.5 48.4375 337.5C45.8487 337.5 43.75 339.599 43.75 342.188C43.75 344.776 45.8487 346.875 48.4375 346.875Z" fill="#FFC909"/>
<path d="M129.688 384.375C132.276 384.375 134.375 382.276 134.375 379.688C134.375 377.099 132.276 375 129.688 375C127.099 375 125 377.099 125 379.688C125 382.276 127.099 384.375 129.688 384.375Z" fill="#FF9E00"/>
<path d="M159.375 118.75C161.101 118.75 162.5 117.351 162.5 115.625C162.5 113.899 161.101 112.5 159.375 112.5C157.649 112.5 156.25 113.899 156.25 115.625C156.25 117.351 157.649 118.75 159.375 118.75Z" fill="#1D7CF8"/>
<path d="M378.125 287.5C379.851 287.5 381.25 286.101 381.25 284.375C381.25 282.649 379.851 281.25 378.125 281.25C376.399 281.25 375 282.649 375 284.375C375 286.101 376.399 287.5 378.125 287.5Z" fill="#FF9E00"/>
<path d="M3.125 256.25C4.85089 256.25 6.25 254.851 6.25 253.125C6.25 251.399 4.85089 250 3.125 250C1.39911 250 0 251.399 0 253.125C0 254.851 1.39911 256.25 3.125 256.25Z" fill="#FF9E00"/>
<path d="M240.625 400C242.351 400 243.75 398.601 243.75 396.875C243.75 395.149 242.351 393.75 240.625 393.75C238.899 393.75 237.5 395.149 237.5 396.875C237.5 398.601 238.899 400 240.625 400Z" fill="#FFC909"/>
<path d="M215.625 6.25C217.351 6.25 218.75 4.85089 218.75 3.125C218.75 1.39911 217.351 0 215.625 0C213.899 0 212.5 1.39911 212.5 3.125C212.5 4.85089 213.899 6.25 215.625 6.25Z" fill="#1D7CF8"/>
<path d="M62.5 150C65.9518 150 68.75 147.202 68.75 143.75C68.75 140.298 65.9518 137.5 62.5 137.5C59.0482 137.5 56.25 140.298 56.25 143.75C56.25 147.202 59.0482 150 62.5 150Z" fill="#FF9E00"/>
<path d="M201.125 274.594L180.938 333.281C180.562 334.344 179.906 335.281 179.062 336L241.437 283.125L201.125 274.594Z" fill="#95C3FF" stroke="#021631" stroke-width="2" stroke-miterlimit="10" stroke-linecap="round" stroke-linejoin="round"/>
<path d="M142.438 262.156L321.875 87.5C324.594 87.5 327.062 88.6563 328.781 90.5313L201.125 274.594L180.938 333.281C180.094 335.719 177.75 337.5 175.031 337.5C172.344 337.5 170.063 335.812 169.188 333.438L142.438 262.156Z" fill="#E3EFFF"/>
<path d="M326.094 88.5L171.437 268.312C159.969 281.625 156.687 300.125 162.844 316.594L169.156 333.437C170.031 335.812 172.344 337.5 175 337.5C177.75 337.5 180.062 335.75 180.906 333.281L201.094 274.594L328.75 90.5312C328 89.6875 327.094 89 326.094 88.5Z" fill="#95C3FF"/>
<path d="M162.875 316.594L142.469 262.156L321.875 87.5C324.594 87.5 327.062 88.6563 328.781 90.5313L201.125 274.594L180.937 333.281C180.094 335.719 177.75 337.5 175.031 337.5C172.344 337.5 170.062 335.812 169.188 333.438L162.875 316.594Z" stroke="#021631" stroke-width="2" stroke-miterlimit="10" stroke-linecap="round" stroke-linejoin="round"/>
<path d="M201.125 274.594L241.406 283.125L319.906 299.781C320.531 299.906 321.187 300 321.875 300C327.062 300 331.25 295.812 331.25 290.625V96.875C331.25 94.4375 330.312 92.1875 328.781 90.5312L201.125 274.594Z" fill="white"/>
<path d="M328.781 90.5312L326.437 93.9062L302.375 296.094L319.937 299.812C320.562 299.938 321.219 300.031 321.906 300.031C327.094 300.031 331.281 295.844 331.281 290.656V96.875C331.25 94.4375 330.312 92.1875 328.781 90.5312Z" fill="#E3EFFF"/>
<path d="M331.25 156.25V96.875C331.25 94.4375 330.312 92.1875 328.781 90.5312L201.125 274.594L241.406 283.125L319.906 299.781C320.531 299.906 321.187 300 321.875 300C327.062 300 331.25 295.812 331.25 290.625V156.25Z" stroke="#021631" stroke-width="2" stroke-miterlimit="10" stroke-linecap="round" stroke-linejoin="round"/>
<path d="M317.406 88.625L53.2812 232C51.3438 233.063 50 235.125 50 237.5C50 240.5 52.125 243 54.9375 243.625L142.437 262.188L321.875 87.5C320.25 87.5 318.75 87.9062 317.406 88.625Z" fill="white"/>
<path d="M314.906 90L109.5 255.187L142.437 262.188L321.875 87.5C320.25 87.5 318.75 87.9062 317.406 88.625L314.906 90Z" fill="#E3EFFF"/>
<path d="M153.687 177.5L53.25 232C51.3125 233.062 49.9688 235.125 49.9688 237.5C49.9688 240.5 52.0937 243 54.9062 243.625L142.406 262.188L321.875 87.5C320.25 87.5 318.75 87.9062 317.406 88.625L153.687 177.5Z" stroke="#021631" stroke-width="2" stroke-miterlimit="10" stroke-linecap="round" stroke-linejoin="round"/>
</svg>
