<svg width="116" height="116" viewBox="0 0 116 116" fill="none" xmlns="http://www.w3.org/2000/svg">
<path d="M58 0C37.7097 0 19.3333 16.4478 19.3333 36.743C19.3333 57.0333 36.1002 81.258 58 116C79.8998 81.258 96.6667 57.0333 96.6667 36.743C96.6667 16.4478 78.2952 0 58 0ZM58 53.1667C49.9912 53.1667 43.5 46.6755 43.5 38.6667C43.5 30.6578 49.9912 24.1667 58 24.1667C66.0088 24.1667 72.5 30.6578 72.5 38.6667C72.5 46.6755 66.0088 53.1667 58 53.1667Z" fill="#1D7CF8"/>
<circle cx="58.5" cy="37.5" r="31.5" fill="#FFFAFA"/>
<path d="M78.5078 35.8594C78.5078 38.9062 78.0039 41.5664 76.9961 43.8398C75.9883 46.0898 74.582 47.9766 72.7773 49.5C70.9961 51 68.875 52.125 66.4141 52.875C63.9531 53.625 61.2812 54 58.3984 54H42.3672V52.9805C43.4922 52.9805 44.3828 52.9102 45.0391 52.7695C45.7188 52.6289 46.2344 52.3711 46.5859 51.9961C46.9375 51.5977 47.1719 51.0586 47.2891 50.3789C47.4062 49.6758 47.4648 48.7734 47.4648 47.6719V24.3984C47.4648 23.2734 47.418 22.3594 47.3242 21.6562C47.2305 20.9531 47.0078 20.4141 46.6562 20.0391C46.3047 19.6406 45.7891 19.3711 45.1094 19.2305C44.4297 19.0898 43.5156 19.0195 42.3672 19.0195V18.0703H56.957C59.9805 18.0703 62.8047 18.3516 65.4297 18.9141C68.0547 19.4766 70.3281 20.4492 72.25 21.832C74.1953 23.1914 75.7188 25.0078 76.8203 27.2812C77.9453 29.5547 78.5078 32.4141 78.5078 35.8594ZM72.5312 36.0703C72.5312 33.8438 72.2148 31.7695 71.582 29.8477C70.9727 27.9023 70.0469 26.2031 68.8047 24.75C67.5859 23.2969 66.0742 22.1602 64.2695 21.3398C62.4883 20.4961 60.4141 20.0742 58.0469 20.0742C57.1094 20.0742 56.1836 20.1445 55.2695 20.2852C54.3789 20.4258 53.4766 20.625 52.5625 20.8828V51.3984C53.4062 51.6328 54.3203 51.832 55.3047 51.9961C56.2891 52.1367 57.25 52.207 58.1875 52.207C60.5312 52.207 62.5938 51.7852 64.375 50.9414C66.1562 50.0742 67.6445 48.9141 68.8398 47.4609C70.0586 45.9844 70.9727 44.2734 71.582 42.3281C72.2148 40.3594 72.5312 38.2734 72.5312 36.0703Z" fill="#1D7CF8"/>
</svg>
