<svg width="48" height="36" viewBox="0 0 48 36" fill="none" xmlns="http://www.w3.org/2000/svg">
<path d="M10.6 11.6C10.2 12 10 12.5 10 13C10 13.5 10.2 14 10.6 14.4L16.6 20.4C17 20.8 17.5 21 18 21H30.5L45.1 28.8C45.4 28.9 45.7 29 46 29C46.7 29 47.4 28.6 47.8 27.9C47.9 27.6 48 27.4 48 27.1C48 26.3 47.6 25.6 46.9 25.2L31.9 17.2C31.6 17.1 31.3 17 31 17H18.8L13.4 11.6C13 11.2 12.5 11 12 11C11.5 11 11 11.2 10.6 11.6Z" fill="#1D7CF8"/>
<path d="M8 11C10.2091 11 12 9.20914 12 7C12 4.79086 10.2091 3 8 3C5.79086 3 4 4.79086 4 7C4 9.20914 5.79086 11 8 11Z" fill="#1D7CF8"/>
<path d="M46.9 32.2L29.9 23.2C29.6 23.1 29.3 23 29 23H15.8L3.4 10.6C3 10.2 2.5 10 2 10C1.5 10 0.999998 10.2 0.599998 10.6C0.199998 11 0 11.5 0 12C0 12.5 0.199998 13 0.599998 13.4L18.6 31.4C19 31.8 19.5 32 20 32L30.2 27.8L45.1 35.8C45.4 35.9 45.7 36 46 36C46.7 36 47.4 35.6 47.8 34.9C48 34.6 48 34.3 48 33.9C48 33.2 47.6 32.6 46.9 32.2Z" fill="#021631"/>
<path d="M23 4.70001C23 4.50001 23 4.2 22.9 4H28C28.6 4 29 4.4 29 5V15H31V5C31 3.3 29.7 2 28 2H22.1C21.3 0.8 19.9 0 18.3 0C17 0 15.8 0.499994 15 1.39999L21.6 8C22.5 7.2 23 6.00001 23 4.70001Z" fill="#021631"/>
</svg>
