<svg width="28" height="48" viewBox="0 0 28 48" fill="none" xmlns="http://www.w3.org/2000/svg">
<path d="M6 22H22H24C24 19.9 28 16 28 9C28 1.6 22.8 0 21 0C19.2 0 17 1.3 14 1.3C11 1.3 8.8 0 7 0C5.2 0 0 1.6 0 9C0 16 4 19.9 4 22H6ZM7 2C7.5 2 8.20001 2.2 9.10001 2.4C10.4 2.8 12.1 3.2 14 3.2C16 3.2 17.6 2.7 18.9 2.4C19.7 2.2 20.5 2 21 2C21 2 26 2.3 26 9C26 13 24.5 16 23.4 18.1C23 18.8 22.7 19.4 22.5 20H5.60001C5.40001 19.4 5 18.8 4.7 18.1C3.6 16 2.10001 13 2.10001 9C2.00001 2.3 7 2 7 2Z" fill="#021631"/>
<path d="M10 46.3C10 46.3 11 48 14 48C17 48 18 46.3 18 46.3L18.5 44H9.60001L10 46.3Z" fill="#1D7CF8"/>
<path d="M23 26H22V24H6V26H5C4.4 26 4 26.4 4 27C4 27.6 4.4 28 5 28H23C23.6 28 24 27.6 24 27C24 26.4 23.6 26 23 26Z" fill="#1D7CF8"/>
<path d="M22 31H21L21.4 29H6.60001L7 31H6C5.4 31 5 31.4 5 32C5 32.6 5.4 33 6 33H22C22.6 33 23 32.6 23 32C23 31.4 22.6 31 22 31Z" fill="#1D7CF8"/>
<path d="M21 36H20L20.4 34H7.60001L8 36H7C6.4 36 6 36.4 6 37C6 37.6 6.4 38 7 38H21C21.6 38 22 37.6 22 37C22 36.4 21.6 36 21 36Z" fill="#1D7CF8"/>
<path d="M20 41H19L19.4 39H8.5L8.89999 41H7.89999C7.29999 41 6.89999 41.4 6.89999 42C6.89999 42.6 7.29999 43 7.89999 43H19.9C20.5 43 20.9 42.6 20.9 42C20.9 41.4 20.6 41 20 41Z" fill="#1D7CF8"/>
</svg>
