<svg width="48" height="20" viewBox="0 0 48 20" fill="none" xmlns="http://www.w3.org/2000/svg">
<path d="M42 0C39.8 0 38.4 2.5 37.5 5.5C36.4 2.2 34.4 0 31 0C27 0 25 3 24 7.2C23 3.1 21 0 17 0C13.6 0 11.6 2.2 10.5 5.5C9.6 2.4 8.2 0 6 0C0.6 0 0 8.3 0 15C0 16.8 1.6 17.8 9 18C9 19 10 20 11 20H23C23.3 20 23.7 19.9 24 19.7C24.3 19.9 24.7 20 25 20H37C38 20 39 19 39 18C46.4 17.8 48 16.8 48 15C48 8.3 47.4 0 42 0ZM10 6.89999C10 6.99999 10 7.00001 10 7.10001V6.89999ZM46 15C45.6 15.3 44.2 15.8 39 16C39 15 38.9 14 38.8 13H36.8C36.9 14.5 37 16.1 37 17.9L36.9 18H25.1L25 17.9C25 16.1 25.1 14.5 25.2 13H22.8C22.9 14.5 23 16.1 23 17.9L22.9 18H11.1L11 17.9C11 16.1 11.1 14.5 11.2 13H9.2C9.1 14 9.10001 15 9.10001 16C3.80001 15.9 2.40001 15.3 2.10001 15C2.10001 6.3 3.40001 2 6.10001 2C7.30001 2 8.6 4.7 9.3 9H11.7C12.6 4.2 14.3 2 17 2C19.7 2 21.4 4.2 22.3 9H25.7C26.6 4.2 28.3 2 31 2C33.7 2 35.4 4.2 36.3 9H38.8C39.6 4.7 40.9 2 42 2C44.7 2 46 6.3 46 15Z" fill="#021631"/>
<path d="M41.3 10H40H38.6H36.5H35H32.7C32.4 9.4 31.7 9 31 9C30.3 9 29.6 9.4 29.3 10H27H25.5H22.4H22H18.7C18.4 9.4 17.7 9 17 9C16.3 9 15.6 9.4 15.3 10H13H11.5H9.39999H8H6.7C6.4 9.4 5.7 9 5 9C3.9 9 3 9.9 3 11C3 12.1 3.9 13 5 13C5.7 13 6.4 12.6 6.7 12H8H9.2H11.2H12.9H15.2C15.5 12.6 16.2 13 16.9 13C17.6 13 18.3 12.6 18.6 12H21.9H22.6H25.2H26.9H29.2C29.5 12.6 30.2 13 30.9 13C31.6 13 32.3 12.6 32.6 12H34.9H36.6H38.6H39.9H41.2C41.5 12.6 42.2 13 42.9 13C44 13 44.9 12.1 44.9 11C44.9 9.9 44 9 42.9 9C42.3 9 41.6 9.4 41.3 10Z" fill="#1D7CF8"/>
</svg>
