<svg width="48" height="55" viewBox="0 0 48 55" fill="none" xmlns="http://www.w3.org/2000/svg">
<path d="M40.2778 9C40.2778 1.6 34.3778 0 32.2778 0C30.1778 0 27.6778 1.3 24.2778 1.3C20.8778 1.3 18.3778 0 16.2778 0C14.1778 0 8.2778 1.6 8.2778 9C8.2778 16 11.2778 19.9 11.2778 22C11.2778 23.2 11.1778 33.9 12.6778 40.3C13.7778 44.9 15.1778 48 16.8778 48C18.5778 48 18.4778 42.1 19.2778 37.8C20.0778 33.5 21.9778 28 24.2778 28C26.5778 28 28.4778 33.5 29.2778 37.8C30.0778 42.1 29.9778 48 31.6778 48C33.3778 48 34.7778 44.8 35.8778 40.3C37.3778 34 37.2778 23.3 37.2778 22C37.2778 19.9 40.2778 16 40.2778 9ZM35.2778 22V22.2C35.2778 29.8 34.8778 36 33.9778 39.8C33.2778 42.5 32.6778 44.1 32.2778 45C32.0778 44 31.9778 42.7 31.8778 41.7C31.6778 40.3 31.5778 38.8 31.2778 37.4C30.7778 34.7 28.7778 26 24.2778 26C19.7778 26 17.7778 34.7 17.2778 37.4C17.0778 38.8 16.8778 40.2 16.6778 41.7C16.5778 42.7 16.3778 44 16.2778 45C15.7778 44.1 15.1778 42.6 14.5778 39.9C13.6778 36.1 13.2778 29.9 13.2778 22.3V22C13.2778 20.9 12.8778 19.7 12.2778 18.3C11.4778 16.1 10.2778 13.1 10.2778 9C10.2778 2.2 16.1778 2 16.2778 2C16.9778 2 17.7778 2.2 18.7778 2.5C20.2778 2.9 22.0778 3.3 24.2778 3.3C26.4778 3.3 28.2778 2.9 29.7778 2.5C30.7778 2.3 31.6778 2 32.2778 2C32.3778 2 38.2778 2.2 38.2778 9C38.2778 13.1 37.0778 16.1 36.2778 18.3C35.6778 19.7 35.2778 20.9 35.2778 22Z" fill="#021631"/>
<path d="M1.77777 32C1.77777 32 2.77777 23.4994 7.27793 23.4994C8.59929 23.4994 9 34 10.5 42C12.0365 50.1944 15.8926 49.7454 17.2779 49.9994C18.1015 50.1504 19.4779 49.5256 20 46.9993L21 44.9993C21 44.9993 21 42 24.2779 42C27.5559 42 27.5559 44.9993 27.5559 44.9993L28.5559 46.9993C29.078 49.5256 30.4544 50.1503 31.2779 49.9994C32.6633 49.7454 36.5194 50.1944 38.0559 42C39.5559 34 39.9566 23.4993 41.278 23.4993C45.7781 23.4993 46.7781 32 46.7781 32C46.7781 32 49.7781 53 45.7781 54.9993L24.2779 54.9994H2.77777C-1.2222 53 1.77777 32 1.77777 32Z" fill="#1D7CF8"/>
</svg>
