<svg width="39" height="44" viewBox="0 0 39 44" fill="none" xmlns="http://www.w3.org/2000/svg">
<path d="M39 10.5C39 4.7 34.3 0 28.5 0C22.7 0 18 4.7 18 10.5C18 15.8 21.9 20.2 27 20.9V27L25 33V44H32V33L30 27V20.9C35.1 20.2 39 15.8 39 10.5ZM28.5 19C23.8 19 20 15.2 20 10.5C20 5.8 23.8 2 28.5 2C33.2 2 37 5.8 37 10.5C37 15.2 33.2 19 28.5 19Z" fill="#021631"/>
<path d="M13 1.79998C13 1.79998 13.4 1.49997 13.1 1.19997C12.9 0.89997 12.5 1.09998 12.5 1.09998L1.2 7.89997L1 7.99997C0.3 8.49997 0 9.39998 0 10.3C0 11.2 0.4 12.2 1 12.9L7 19V27L5 33V44H12V33L10 27V19L2.5 11.5C1.9 10.9 1.79999 9.99997 2.39999 9.39997L13 1.79998Z" fill="#1D7CF8"/>
</svg>
