<svg width="1294" height="1294" viewBox="0 0 1294 1294" fill="none" xmlns="http://www.w3.org/2000/svg">
<g clip-path="url(#clip0)">
<path d="M1207.96 663.76C1202.75 653.107 1202.75 640.89 1207.96 630.24L1256.22 531.51C1283.09 476.538 1261.8 411.017 1207.75 382.339L1110.67 330.832C1100.2 325.277 1093.02 315.39 1090.97 303.717L1071.99 195.474C1061.41 135.207 1005.67 94.709 945.094 103.279L836.285 118.671C824.541 120.329 812.928 116.553 804.408 108.311L725.427 31.9049C681.449 -10.6402 612.554 -10.6427 568.578 31.9049L489.594 108.319C481.072 116.563 469.459 120.331 457.717 118.678L348.908 103.287C288.315 94.7115 232.587 135.214 222.016 195.481L203.03 303.719C200.981 315.395 193.8 325.28 183.33 330.837L86.255 382.344C32.2056 411.019 10.9154 476.545 37.7859 531.517L86.0453 630.245C91.2516 640.898 91.2516 653.115 86.0453 663.765L37.7834 762.492C10.9128 817.464 32.2031 882.985 86.2525 911.663L183.327 963.17C193.8 968.725 200.981 978.612 203.03 990.286L222.016 1098.53C231.64 1153.39 278.683 1191.87 332.75 1191.86C338.076 1191.86 343.479 1191.49 348.91 1190.72L457.719 1175.33C469.454 1173.66 481.074 1177.45 489.597 1185.69L568.578 1262.09C590.571 1283.37 618.781 1294.01 647.001 1294C675.214 1294 703.441 1283.36 725.424 1262.09L804.408 1185.69C812.93 1177.45 824.546 1173.68 836.285 1175.33L945.094 1190.72C1005.69 1199.29 1061.41 1158.79 1071.99 1098.53L1090.97 990.288C1093.02 978.612 1100.2 968.728 1110.67 963.17L1207.75 911.663C1261.8 882.988 1283.09 817.462 1256.22 762.49L1207.96 663.76ZM1172.77 845.733L1075.69 897.24C1044.74 913.665 1023.52 942.875 1017.46 977.389L998.479 1085.63C994.903 1106.02 976.052 1119.72 955.547 1116.82L846.738 1101.43C812.038 1096.51 777.702 1107.68 752.517 1132.04L673.533 1208.45C658.657 1222.84 635.348 1222.84 620.467 1208.45L541.485 1132.04C520.2 1111.45 492.374 1100.29 463.325 1100.29C458.002 1100.29 452.637 1100.67 447.264 1101.43L338.455 1116.82C317.968 1119.72 299.102 1106.02 295.523 1085.63L276.535 977.384C270.48 942.87 249.255 913.657 218.303 897.237L121.228 845.73C102.94 836.028 95.7376 813.86 104.828 795.262L153.09 696.532C168.477 665.051 168.477 628.946 153.09 597.465L104.828 498.735C95.7376 480.137 102.94 457.97 121.228 448.267L218.303 396.76C249.253 380.335 270.48 351.124 276.533 316.611L295.518 208.371C299.097 187.98 317.945 174.282 338.45 177.178L447.259 192.57C481.946 197.48 516.295 186.317 541.48 161.956L620.464 85.5499C635.34 71.1593 658.65 71.1593 673.53 85.5499L752.512 161.956C777.697 186.32 812.041 197.48 846.733 192.57L955.542 177.178C976.032 174.279 994.898 187.98 998.474 208.371L1017.46 316.614C1023.51 351.127 1044.74 380.34 1075.69 396.76L1172.77 448.267C1191.05 457.97 1198.26 480.137 1189.17 498.735L1140.9 597.463C1125.52 628.941 1125.52 665.051 1140.9 696.529L1189.17 795.257C1198.26 813.86 1191.06 836.03 1172.77 845.733Z" fill="white" fill-opacity="0.3"/>
<path d="M919.66 374.338C905.09 359.765 881.459 359.765 866.886 374.338L374.338 866.889C359.765 881.461 359.765 905.089 374.338 919.662C381.624 926.948 391.175 930.593 400.723 930.593C410.271 930.593 419.825 926.951 427.109 919.662L919.657 427.113C934.235 412.538 934.235 388.913 919.66 374.338Z" fill="white" fill-opacity="0.3"/>
<path d="M497.735 311.155C422.289 311.155 360.908 372.536 360.908 447.982C360.908 523.428 422.289 584.809 497.735 584.809C573.181 584.809 634.562 523.428 634.562 447.982C634.562 372.536 573.181 311.155 497.735 311.155ZM497.735 510.174C463.441 510.174 435.542 482.275 435.542 447.979C435.542 413.686 463.441 385.787 497.735 385.787C532.028 385.787 559.93 413.686 559.93 447.979C559.927 482.275 532.028 510.174 497.735 510.174Z" fill="white" fill-opacity="0.3"/>
<path d="M796.263 709.193C720.817 709.193 659.436 770.575 659.436 846.02C659.436 921.466 720.817 982.848 796.263 982.848C871.708 982.848 933.09 921.466 933.09 846.02C933.09 770.575 871.708 709.193 796.263 709.193ZM796.263 908.213C761.969 908.213 734.068 880.314 734.068 846.02C734.068 811.727 761.967 783.828 796.263 783.828C830.556 783.828 858.455 811.727 858.455 846.02C858.455 880.314 830.556 908.213 796.263 908.213Z" fill="white" fill-opacity="0.3"/>
</g>
<defs>
<clipPath id="clip0">
<rect width="1294" height="1294" fill="white"/>
</clipPath>
</defs>
</svg>
